<?xml version="1.0" encoding="UTF-8" standalone="no"?>
<!DOCTYPE svg PUBLIC "-//W3C//DTD SVG 1.1//EN" "http://www.w3.org/Graphics/SVG/1.1/DTD/svg11.dtd">
<svg width="100%" height="100%" viewBox="0 0 498 498" version="1.1" xmlns="http://www.w3.org/2000/svg" xmlns:xlink="http://www.w3.org/1999/xlink" xml:space="preserve" xmlns:serif="http://www.serif.com/" style="fill-rule:evenodd;clip-rule:evenodd;stroke-linejoin:round;stroke-miterlimit:2;">
    <g transform="matrix(1,0,0,1,-1163.46,-5403.65)">
        <g id="Logo" transform="matrix(0.259185,0,0,0.460773,1163.46,5403.65)">
            <rect x="0" y="0" width="1920" height="1080" style="fill:rgb(21,26,30);"/>
            <g id="Logo1" serif:id="Logo" transform="matrix(3.01057,0,0,1.69344,-1930.14,-305.316)">
                <g id="Plane" transform="matrix(1.50314,0,0,1.50314,-417.085,-713.499)">
                    <g transform="matrix(1,0,0,1,0,-4893.51)">
                        <path d="M904.381,5815.4L899.004,5815.4C898.354,5813.69 897.948,5811.87 897.832,5809.96C895.874,5777.74 891.64,5708.07 889.248,5668.72C888.797,5661.3 891.428,5654.03 896.519,5648.62C901.61,5643.21 908.708,5640.15 916.136,5640.15L916.142,5640.15C923.57,5640.15 930.668,5643.21 935.759,5648.62C940.85,5654.03 943.481,5661.3 943.03,5668.72C940.638,5708.07 936.404,5777.74 934.445,5809.96C934.329,5811.87 933.924,5813.69 933.274,5815.4L927.896,5815.4C927.896,5815.4 923.915,5823.47 921.573,5828.22C920.553,5830.29 918.446,5831.6 916.139,5831.6L916.139,5831.6C913.832,5831.6 911.725,5830.29 910.705,5828.22C908.363,5823.47 904.381,5815.4 904.381,5815.4Z" style="fill:white;"/>
                    </g>
                    <g transform="matrix(0.480622,0,0,-0.578709,465.021,4207.91)">
                        <path d="M1046.73,5692.52C1046.73,5682.08 1036.52,5678.2 1023.95,5678.2L853.273,5678.2C840.698,5678.2 830.49,5682.08 830.49,5692.52C830.49,5702.97 844.396,5706.33 853.273,5709.8C866.803,5715.09 915.672,5724.26 915.672,5724.26L961.556,5724.26C961.556,5724.26 1010.42,5715.09 1023.95,5709.8C1032.83,5706.33 1046.73,5702.97 1046.73,5692.52Z" style="fill:white;"/>
                    </g>
                    <g transform="matrix(1,0,0,1,0,-4893.51)">
                        <path d="M1024.26,5695.45C1024.26,5682.87 1014.05,5678.2 1001.48,5678.2L830.8,5678.2C818.226,5678.2 808.018,5682.87 808.018,5695.45C808.018,5708.02 821.923,5712.07 830.8,5716.25C844.33,5722.62 893.2,5733.66 893.2,5733.66L939.084,5733.66C939.084,5733.66 987.947,5722.62 1001.48,5716.25C1010.36,5712.07 1024.26,5708.02 1024.26,5695.45ZM994.346,5685.1L998.54,5691.56L1005.98,5689.56L1001.13,5695.55L1005.33,5702L998.137,5699.24L993.291,5705.23L993.694,5697.54L986.506,5694.78L993.943,5692.79L994.346,5685.1ZM837.932,5685.1L833.738,5691.56L826.3,5689.56L831.146,5695.55L826.952,5702L834.141,5699.24L838.987,5705.23L838.584,5697.54L845.772,5694.78L838.335,5692.79L837.932,5685.1Z" style="fill:white;"/>
                    </g>
                    <g transform="matrix(1,0,0,1,0,-4893.51)">
                        <path d="M914.628,5636.72L914.628,5642.4L917.575,5642.4L917.575,5636.72L937.345,5636.72C938.463,5636.72 939.372,5635.81 939.372,5634.69C939.372,5633.57 938.463,5632.66 937.345,5632.66L894.858,5632.66C893.74,5632.66 892.831,5633.57 892.831,5634.69C892.831,5635.81 893.74,5636.72 894.858,5636.72L914.628,5636.72Z" style="fill:white;"/>
                    </g>
                </g>
                <g transform="matrix(1,0,0,1,0,-4893.51)">
                    <path d="M902.847,5488.74L813.258,5488.74L835.115,5445.03C843.242,5446.14 851.368,5447.14 859.499,5448.04L850.146,5466.74L902.847,5466.74L902.847,5488.74ZM1017.15,5466.74L1069.85,5466.74L1060.47,5447.97C1068.6,5447.08 1076.72,5446.08 1084.86,5444.97L1106.74,5488.74L1017.15,5488.74L1017.15,5466.74ZM999.418,5274.1L973.53,5274.1L960,5247.03L946.47,5274.1L920.582,5274.1L960,5195.26L999.418,5274.1Z" style="fill:rgb(197,214,183);"/>
                </g>
            </g>
        </g>
        <g id="Grid-Key" serif:id="Grid Key">
        </g>
    </g>
</svg>
