<?xml version="1.0" standalone="no"?>
<!DOCTYPE svg PUBLIC "-//W3C//DTD SVG 20010904//EN"
 "http://www.w3.org/TR/2001/REC-SVG-20010904/DTD/svg10.dtd">
<svg version="1.0" xmlns="http://www.w3.org/2000/svg"
 width="309.000000pt" height="309.000000pt" viewBox="0 0 309.000000 309.000000"
 preserveAspectRatio="xMidYMid meet">
<metadata>
Created by potrace 1.14, written by Peter Selinger 2001-2017
</metadata>
<g transform="translate(0.000000,309.000000) scale(0.100000,-0.100000)"
fill="#000000" stroke="none">
<path d="M1392 2786 c-83 -167 -152 -306 -152 -309 0 -2 45 -4 99 -4 l100 0
52 103 c28 57 53 104 54 104 2 0 26 -47 54 -104 l51 -104 100 0 c102 0 121 8
85 38 -8 6 -14 15 -13 18 1 4 -61 132 -138 285 l-139 277 -153 -304z"/>
<path d="M1273 2324 c-10 -26 15 -32 116 -32 138 0 137 0 138 -21 1 -14 -7
-21 -35 -26 -100 -19 -183 -81 -234 -177 -19 -36 -23 -61 -25 -148 -2 -58 -3
-107 -3 -110 0 -3 -172 -5 -383 -6 -337 0 -388 -2 -434 -18 -90 -30 -129 -75
-140 -161 -13 -112 56 -181 278 -273 87 -36 330 -106 546 -157 190 -46 179
-41 180 -68 0 -19 5 -109 18 -317 2 -30 6 -111 10 -180 3 -69 8 -130 10 -136
2 -7 -22 -19 -58 -28 -139 -38 -249 -80 -283 -110 -59 -52 -53 -116 16 -151
16 -8 32 -15 35 -15 3 0 90 0 194 0 l189 0 40 -85 c45 -94 72 -116 119 -99 24
8 52 43 69 84 3 8 16 34 28 57 l21 43 180 1 c192 1 203 1 245 19 49 20 61 90
23 132 -36 40 -155 89 -286 118 -34 8 -62 20 -67 30 -5 10 -8 19 -6 21 2 2 7
63 11 134 4 72 8 146 10 165 4 41 18 284 19 318 0 25 -5 23 201 72 416 99 667
193 755 283 91 93 51 248 -77 297 -56 22 -70 23 -445 23 -214 1 -388 4 -388 7
0 3 -1 52 -3 110 -2 87 -6 112 -25 148 -50 95 -139 163 -231 178 -31 5 -41 11
-41 25 0 21 -1 21 140 21 96 0 123 8 113 34 -4 12 -50 14 -269 14 -233 0 -265
-2 -271 -16z m-648 -629 c-6 -46 5 -64 41 -71 43 -8 43 -21 2 -32 -31 -8 -33
-11 -33 -50 0 -23 -3 -42 -7 -42 -4 0 -16 13 -28 29 -20 29 -21 29 -55 15 -48
-20 -49 -18 -25 21 l21 35 -26 34 -26 34 42 -9 c23 -5 43 -8 44 -7 26 39 47
68 49 68 2 0 2 -11 1 -25z m1872 -16 c18 -31 34 -33 88 -13 17 7 16 3 -8 -29
l-28 -37 22 -37 c21 -34 22 -36 3 -29 -50 22 -65 19 -93 -15 l-28 -34 4 46 c4
43 4 45 -31 59 -45 17 -45 26 -2 34 37 7 44 17 41 59 -2 36 10 34 32 -4z"/>
<path d="M557 1116 c-21 -33 -143 -279 -151 -302 l-6 -21 347 1 348 1 0 85 0
85 -197 0 c-108 0 -199 3 -203 7 -3 3 7 33 24 67 17 33 31 64 31 69 0 5 -17 9
-37 10 -21 1 -62 6 -90 10 -48 8 -54 7 -66 -12z"/>
<path d="M2509 1135 c-4 -3 -123 -17 -156 -18 -19 0 -16 -11 17 -77 17 -33 30
-63 30 -67 0 -4 -91 -8 -203 -8 l-202 0 0 -85 0 -85 348 -1 c191 -1 347 2 347
6 0 12 -161 329 -170 335 -4 2 -9 3 -11 0z"/>
</g>
</svg>
